# xmcd
#
# Track frame offsets:
#	150
#	25119
#	41883
#	57348
#	66672
#	110778
#	161027
#	188894
#	208778
#
# Disc length: 3206 seconds
# Revision: 0
# Processed by: cddbd v1.5.2PL0 Copyright (c) Steve Scherf et al.
# Submitted via: dBpowerAMP V12.0
#
DISCID=8c0c8409
DTITLE=Greensky Bluegrass - All Access: Vol. 2, Disc 1
DYEAR=2010
DGENRE=Country
TTITLE0=Old Barns
TTITLE1=Climbin' Up a Mountain
TTITLE2=Through the Trees
TTITLE3=Blood Sucking F(r)iends
TTITLE4=Freeborn Man
TTITLE5=Jam 1
TTITLE6=Bottle Dry
TTITLE7=Runnin' the Briars
TTITLE8=Gumboots
EXTD=
EXTT0=
EXTT1=
EXTT2=
EXTT3=
EXTT4=
EXTT5=
EXTT6=
EXTT7=
EXTT8=
PLAYORDER=
